<mxfile host="65bd71144e">
    <diagram id="9P7TtxNHPq-BRuqwqoCP" name="Page-3">
        <mxGraphModel dx="2390" dy="1539" grid="0" gridSize="10" guides="1" tooltips="1" connect="1" arrows="1" fold="1" page="0" pageScale="1" pageWidth="800" pageHeight="320" background="#ffffff" math="0" shadow="0">
            <root>
                <mxCell id="0"/>
                <mxCell id="1" parent="0"/>
                <mxCell id="Z5TNmx9V-XeQG3wtOzFb-3" value="" style="endArrow=none;html=1;movable=1;resizable=1;rotatable=1;deletable=1;editable=1;connectable=1;fillColor=#dae8fc;strokeColor=#6c8ebf;strokeWidth=9;opacity=40;" parent="1" edge="1">
                    <mxGeometry width="50" height="50" relative="1" as="geometry">
                        <mxPoint x="135" y="550" as="sourcePoint"/>
                        <mxPoint x="133.5" y="36" as="targetPoint"/>
                    </mxGeometry>
                </mxCell>
                <mxCell id="Z5TNmx9V-XeQG3wtOzFb-2" value="" style="endArrow=none;html=1;movable=1;resizable=1;rotatable=1;deletable=1;editable=1;connectable=1;fillColor=#dae8fc;strokeColor=#6c8ebf;strokeWidth=9;opacity=40;" parent="1" edge="1">
                    <mxGeometry width="50" height="50" relative="1" as="geometry">
                        <mxPoint x="420" y="931" as="sourcePoint"/>
                        <mxPoint x="419" y="37" as="targetPoint"/>
                    </mxGeometry>
                </mxCell>
                <mxCell id="PdQYM3GcpFiHRcBwMXML-3" value="" style="endArrow=none;html=1;movable=1;resizable=1;rotatable=1;deletable=1;editable=1;connectable=1;fillColor=#dae8fc;strokeColor=#6c8ebf;strokeWidth=9;opacity=40;" parent="1" edge="1">
                    <mxGeometry width="50" height="50" relative="1" as="geometry">
                        <mxPoint x="-150" y="930" as="sourcePoint"/>
                        <mxPoint x="-151" y="36" as="targetPoint"/>
                    </mxGeometry>
                </mxCell>
                <mxCell id="APrpLEeOHEFqgUjt_4kA-1" value="Automation&lt;br&gt;Pipeline" style="sketch=0;aspect=fixed;html=1;points=[];align=center;image;fontSize=12;image=img/lib/mscae/Azure_Pipelines.svg;labelPosition=center;verticalLabelPosition=top;verticalAlign=bottom;" parent="1" vertex="1">
                    <mxGeometry x="-175" y="-14" width="50" height="50" as="geometry"/>
                </mxCell>
                <mxCell id="APrpLEeOHEFqgUjt_4kA-3" value="PaaS Resource&lt;br&gt;(eg: Stream Analytics)" style="aspect=fixed;html=1;points=[];align=center;image;fontSize=12;image=img/lib/azure2/analytics/Stream_Analytics_Jobs.svg;labelPosition=center;verticalLabelPosition=top;verticalAlign=bottom;" parent="1" vertex="1">
                    <mxGeometry x="94" y="-17.999999999999996" width="68" height="57.99999999999999" as="geometry"/>
                </mxCell>
                <mxCell id="KIcGTd9zDu7gG3VrX3ME-1" value="" style="endArrow=classic;html=1;" parent="1" edge="1">
                    <mxGeometry width="50" height="50" relative="1" as="geometry">
                        <mxPoint x="-150" y="70" as="sourcePoint"/>
                        <mxPoint x="130" y="70" as="targetPoint"/>
                    </mxGeometry>
                </mxCell>
                <mxCell id="KIcGTd9zDu7gG3VrX3ME-3" value="Request MPE" style="edgeLabel;html=1;align=center;verticalAlign=middle;resizable=0;points=[];" parent="KIcGTd9zDu7gG3VrX3ME-1" vertex="1" connectable="0">
                    <mxGeometry x="0.2192" y="2" relative="1" as="geometry">
                        <mxPoint x="-111" as="offset"/>
                    </mxGeometry>
                </mxCell>
                <mxCell id="KIcGTd9zDu7gG3VrX3ME-4" value="" style="endArrow=none;html=1;startArrow=classic;startFill=1;endFill=0;dashed=1;" parent="1" edge="1">
                    <mxGeometry width="50" height="50" relative="1" as="geometry">
                        <mxPoint x="-150" y="210" as="sourcePoint"/>
                        <mxPoint x="130" y="210" as="targetPoint"/>
                    </mxGeometry>
                </mxCell>
                <mxCell id="KIcGTd9zDu7gG3VrX3ME-5" value="Return MPE ResourceID" style="edgeLabel;html=1;align=center;verticalAlign=middle;resizable=0;points=[];" parent="KIcGTd9zDu7gG3VrX3ME-4" vertex="1" connectable="0">
                    <mxGeometry x="0.2192" y="2" relative="1" as="geometry">
                        <mxPoint x="29" as="offset"/>
                    </mxGeometry>
                </mxCell>
                <mxCell id="qY5lc8lTDz0Ngtdu8nZq-2" value="Creates MPE in Pending status and immediatly returns the resource id for the MPE" style="rounded=1;whiteSpace=wrap;html=1;strokeColor=#B3B3B3;" parent="1" vertex="1">
                    <mxGeometry x="72" y="109" width="138" height="61" as="geometry"/>
                </mxCell>
                <mxCell id="qY5lc8lTDz0Ngtdu8nZq-3" value="" style="html=1;endArrow=classic;endFill=1;entryX=0.67;entryY=-0.03;entryDx=0;entryDy=0;entryPerimeter=0;" parent="1" source="Aa7TCWJY33BEtT0of7Fd-23" target="qY5lc8lTDz0Ngtdu8nZq-6" edge="1">
                    <mxGeometry relative="1" as="geometry">
                        <mxPoint x="200" y="531" as="targetPoint"/>
                    </mxGeometry>
                </mxCell>
                <mxCell id="Z5TNmx9V-XeQG3wtOzFb-8" value="... some time later" style="edgeLabel;html=1;align=center;verticalAlign=middle;resizable=0;points=[];fontSize=12;fontColor=#000000;" parent="qY5lc8lTDz0Ngtdu8nZq-3" vertex="1" connectable="0">
                    <mxGeometry x="-0.2808" y="1" relative="1" as="geometry">
                        <mxPoint x="-2" as="offset"/>
                    </mxGeometry>
                </mxCell>
                <mxCell id="qY5lc8lTDz0Ngtdu8nZq-5" value="Begins process to provision Private Endpoint in Managed VNet" style="whiteSpace=wrap;html=1;rounded=1;strokeColor=#B3B3B3;" parent="1" vertex="1">
                    <mxGeometry x="114" y="240" width="120" height="80" as="geometry"/>
                </mxCell>
                <mxCell id="qY5lc8lTDz0Ngtdu8nZq-6" value="Update MPE Status" style="rounded=1;labelBorderColor=none;html=1;whiteSpace=wrap;strokeColor=#B3B3B3;" parent="1" vertex="1">
                    <mxGeometry x="114" y="533" width="120" height="30" as="geometry"/>
                </mxCell>
                <mxCell id="qY5lc8lTDz0Ngtdu8nZq-10" value="" style="endArrow=classic;html=1;startArrow=none;" parent="1" source="Ru3vULmhdfQm2SZLb1U1-36" edge="1">
                    <mxGeometry width="50" height="50" relative="1" as="geometry">
                        <mxPoint x="-150" y="370" as="sourcePoint"/>
                        <mxPoint x="130" y="370" as="targetPoint"/>
                    </mxGeometry>
                </mxCell>
                <mxCell id="qY5lc8lTDz0Ngtdu8nZq-11" value="Get MPE Status" style="edgeLabel;html=1;align=center;verticalAlign=middle;resizable=0;points=[];" parent="qY5lc8lTDz0Ngtdu8nZq-10" vertex="1" connectable="0">
                    <mxGeometry x="0.2192" y="2" relative="1" as="geometry">
                        <mxPoint x="-105" as="offset"/>
                    </mxGeometry>
                </mxCell>
                <mxCell id="Aa7TCWJY33BEtT0of7Fd-3" value="" style="html=1;exitX=0.029;exitY=0.042;exitDx=0;exitDy=0;exitPerimeter=0;" parent="1" source="Aa7TCWJY33BEtT0of7Fd-9" edge="1">
                    <mxGeometry relative="1" as="geometry">
                        <mxPoint x="-280" y="400" as="targetPoint"/>
                    </mxGeometry>
                </mxCell>
                <mxCell id="Aa7TCWJY33BEtT0of7Fd-4" value="Provisioning" style="edgeLabel;html=1;align=center;verticalAlign=middle;resizable=0;points=[];" parent="Aa7TCWJY33BEtT0of7Fd-3" vertex="1" connectable="0">
                    <mxGeometry x="0.1621" y="3" relative="1" as="geometry">
                        <mxPoint as="offset"/>
                    </mxGeometry>
                </mxCell>
                <mxCell id="Aa7TCWJY33BEtT0of7Fd-7" value="" style="edgeStyle=none;html=1;" parent="1" source="Aa7TCWJY33BEtT0of7Fd-9" target="Aa7TCWJY33BEtT0of7Fd-11" edge="1">
                    <mxGeometry relative="1" as="geometry"/>
                </mxCell>
                <mxCell id="Aa7TCWJY33BEtT0of7Fd-8" value="Approved/Other" style="edgeLabel;html=1;align=center;verticalAlign=middle;resizable=0;points=[];" parent="Aa7TCWJY33BEtT0of7Fd-7" vertex="1" connectable="0">
                    <mxGeometry x="-0.1621" y="-2" relative="1" as="geometry">
                        <mxPoint as="offset"/>
                    </mxGeometry>
                </mxCell>
                <mxCell id="Ru3vULmhdfQm2SZLb1U1-7" value="" style="edgeStyle=none;html=1;startArrow=none;startFill=0;endArrow=classic;endFill=1;entryX=0.5;entryY=0;entryDx=0;entryDy=0;exitX=0.768;exitY=0.98;exitDx=0;exitDy=0;exitPerimeter=0;" parent="1" source="Aa7TCWJY33BEtT0of7Fd-9" target="Ru3vULmhdfQm2SZLb1U1-39" edge="1">
                    <mxGeometry relative="1" as="geometry">
                        <mxPoint x="-150" y="550" as="sourcePoint"/>
                        <mxPoint x="-160" y="631" as="targetPoint"/>
                    </mxGeometry>
                </mxCell>
                <mxCell id="Ru3vULmhdfQm2SZLb1U1-8" value="Pending&lt;br&gt;Approval" style="edgeLabel;html=1;align=center;verticalAlign=middle;resizable=0;points=[];" parent="Ru3vULmhdfQm2SZLb1U1-7" vertex="1" connectable="0">
                    <mxGeometry x="-0.3142" y="-1" relative="1" as="geometry">
                        <mxPoint as="offset"/>
                    </mxGeometry>
                </mxCell>
                <mxCell id="Aa7TCWJY33BEtT0of7Fd-9" value="Evaluate MPE&lt;br&gt;Status" style="rounded=1;whiteSpace=wrap;html=1;strokeColor=#B3B3B3;" parent="1" vertex="1">
                    <mxGeometry x="-243" y="480" width="120" height="40" as="geometry"/>
                </mxCell>
                <mxCell id="Aa7TCWJY33BEtT0of7Fd-11" value="Nothing to do, stop." style="rounded=1;whiteSpace=wrap;html=1;arcSize=50;strokeColor=#B3B3B3;" parent="1" vertex="1">
                    <mxGeometry x="-460" y="470" width="90" height="60" as="geometry"/>
                </mxCell>
                <mxCell id="Aa7TCWJY33BEtT0of7Fd-21" value="" style="endArrow=none;html=1;startArrow=classic;startFill=1;endFill=0;dashed=1;" parent="1" edge="1">
                    <mxGeometry width="50" height="50" relative="1" as="geometry">
                        <mxPoint x="-150" y="410" as="sourcePoint"/>
                        <mxPoint x="130" y="410" as="targetPoint"/>
                    </mxGeometry>
                </mxCell>
                <mxCell id="Aa7TCWJY33BEtT0of7Fd-22" value="Return MPE Status" style="edgeLabel;html=1;align=center;verticalAlign=middle;resizable=0;points=[];" parent="Aa7TCWJY33BEtT0of7Fd-21" vertex="1" connectable="0">
                    <mxGeometry x="0.2192" y="2" relative="1" as="geometry">
                        <mxPoint x="39" as="offset"/>
                    </mxGeometry>
                </mxCell>
                <mxCell id="Aa7TCWJY33BEtT0of7Fd-23" value="" style="sketch=0;aspect=fixed;html=1;points=[];align=center;image;fontSize=12;image=img/lib/mscae/Clock.svg;" parent="1" vertex="1">
                    <mxGeometry x="179" y="452" width="31" height="31" as="geometry"/>
                </mxCell>
                <mxCell id="Aa7TCWJY33BEtT0of7Fd-24" value="" style="html=1;exitX=1;exitY=0.5;exitDx=0;exitDy=0;entryX=0;entryY=0.5;entryDx=0;entryDy=0;" parent="1" target="Ru3vULmhdfQm2SZLb1U1-36" edge="1">
                    <mxGeometry relative="1" as="geometry">
                        <mxPoint x="-250" y="370" as="sourcePoint"/>
                        <mxPoint x="-150" y="370" as="targetPoint"/>
                    </mxGeometry>
                </mxCell>
                <mxCell id="Aa7TCWJY33BEtT0of7Fd-27" value="Try&lt;br&gt;again" style="edgeLabel;html=1;align=center;verticalAlign=middle;resizable=0;points=[];" parent="Aa7TCWJY33BEtT0of7Fd-24" vertex="1" connectable="0">
                    <mxGeometry x="-0.1749" y="-1" relative="1" as="geometry">
                        <mxPoint as="offset"/>
                    </mxGeometry>
                </mxCell>
                <mxCell id="Aa7TCWJY33BEtT0of7Fd-26" value="Wait a few&lt;br&gt;seconds" style="sketch=0;aspect=fixed;html=1;points=[];align=center;image;fontSize=12;image=img/lib/mscae/Clock.svg;" parent="1" vertex="1">
                    <mxGeometry x="-300" y="330" width="30" height="30" as="geometry"/>
                </mxCell>
                <mxCell id="Ru3vULmhdfQm2SZLb1U1-1" value="Target Resource&lt;br&gt;(Private Link Resource)" style="aspect=fixed;html=1;points=[];align=center;image;fontSize=12;image=img/lib/azure2/storage/Storage_Accounts.svg;labelBorderColor=none;labelPosition=center;verticalLabelPosition=top;verticalAlign=bottom;" parent="1" vertex="1">
                    <mxGeometry x="387" y="-15" width="65" height="52" as="geometry"/>
                </mxCell>
                <mxCell id="Ru3vULmhdfQm2SZLb1U1-4" value="" style="endArrow=classic;html=1;exitX=1;exitY=0.5;exitDx=0;exitDy=0;" parent="1" source="qY5lc8lTDz0Ngtdu8nZq-5" edge="1">
                    <mxGeometry width="50" height="50" relative="1" as="geometry">
                        <mxPoint x="314" y="250" as="sourcePoint"/>
                        <mxPoint x="410" y="280" as="targetPoint"/>
                    </mxGeometry>
                </mxCell>
                <mxCell id="Ru3vULmhdfQm2SZLb1U1-6" value="Request Private&lt;br&gt;Endpoint Connection" style="edgeLabel;html=1;align=center;verticalAlign=middle;resizable=0;points=[];" parent="Ru3vULmhdfQm2SZLb1U1-4" vertex="1" connectable="0">
                    <mxGeometry x="-0.3583" y="4" relative="1" as="geometry">
                        <mxPoint x="20" as="offset"/>
                    </mxGeometry>
                </mxCell>
                <mxCell id="Ru3vULmhdfQm2SZLb1U1-10" value="" style="endArrow=classic;html=1;exitX=1;exitY=0.5;exitDx=0;exitDy=0;" parent="1" source="Ru3vULmhdfQm2SZLb1U1-39" edge="1">
                    <mxGeometry width="50" height="50" relative="1" as="geometry">
                        <mxPoint x="-150" y="641" as="sourcePoint"/>
                        <mxPoint x="410" y="640" as="targetPoint"/>
                    </mxGeometry>
                </mxCell>
                <mxCell id="PdQYM3GcpFiHRcBwMXML-8" value="&lt;font color=&quot;#000000&quot;&gt;Get PE Status&lt;/font&gt;" style="edgeLabel;html=1;align=center;verticalAlign=middle;resizable=0;points=[];fontColor=#FFFFFF;" parent="Ru3vULmhdfQm2SZLb1U1-10" vertex="1" connectable="0">
                    <mxGeometry x="-0.7661" y="-1" relative="1" as="geometry">
                        <mxPoint x="-10" as="offset"/>
                    </mxGeometry>
                </mxCell>
                <mxCell id="Ru3vULmhdfQm2SZLb1U1-12" value="" style="endArrow=none;html=1;startArrow=classic;startFill=1;endFill=0;dashed=1;" parent="1" edge="1">
                    <mxGeometry width="50" height="50" relative="1" as="geometry">
                        <mxPoint x="140" y="439" as="sourcePoint"/>
                        <mxPoint x="410" y="440" as="targetPoint"/>
                    </mxGeometry>
                </mxCell>
                <mxCell id="Ru3vULmhdfQm2SZLb1U1-13" value="Return OK" style="edgeLabel;html=1;align=center;verticalAlign=middle;resizable=0;points=[];" parent="Ru3vULmhdfQm2SZLb1U1-12" vertex="1" connectable="0">
                    <mxGeometry x="0.2192" y="2" relative="1" as="geometry">
                        <mxPoint x="24" as="offset"/>
                    </mxGeometry>
                </mxCell>
                <mxCell id="Ru3vULmhdfQm2SZLb1U1-14" value="&lt;b&gt;&lt;font style=&quot;background-color: rgb(0, 0, 0);&quot; color=&quot;#ffffff&quot;&gt;Asyn Process&lt;/font&gt;&lt;/b&gt;" style="text;html=1;strokeColor=none;fillColor=none;align=center;verticalAlign=middle;whiteSpace=wrap;rounded=0;labelBorderColor=none;spacing=2;spacingLeft=0;" parent="1" vertex="1">
                    <mxGeometry x="137" y="225" width="87" height="30" as="geometry"/>
                </mxCell>
                <mxCell id="Ru3vULmhdfQm2SZLb1U1-16" value="" style="endArrow=none;html=1;startArrow=classic;startFill=1;endFill=0;dashed=1;" parent="1" edge="1">
                    <mxGeometry width="50" height="50" relative="1" as="geometry">
                        <mxPoint x="-150" y="671" as="sourcePoint"/>
                        <mxPoint x="410" y="671" as="targetPoint"/>
                    </mxGeometry>
                </mxCell>
                <mxCell id="Ru3vULmhdfQm2SZLb1U1-17" value="Return MPE Status" style="edgeLabel;html=1;align=center;verticalAlign=middle;resizable=0;points=[];" parent="Ru3vULmhdfQm2SZLb1U1-16" vertex="1" connectable="0">
                    <mxGeometry x="0.2192" y="2" relative="1" as="geometry">
                        <mxPoint x="139" as="offset"/>
                    </mxGeometry>
                </mxCell>
                <mxCell id="Ru3vULmhdfQm2SZLb1U1-18" value="Evaluate PEC&lt;br&gt;Status" style="rounded=1;whiteSpace=wrap;html=1;strokeColor=#B3B3B3;" parent="1" vertex="1">
                    <mxGeometry x="-250" y="742" width="120" height="38" as="geometry"/>
                </mxCell>
                <mxCell id="Ru3vULmhdfQm2SZLb1U1-20" value="" style="endArrow=classic;html=1;exitX=1;exitY=0.5;exitDx=0;exitDy=0;" parent="1" source="PdQYM3GcpFiHRcBwMXML-9" edge="1">
                    <mxGeometry width="50" height="50" relative="1" as="geometry">
                        <mxPoint x="-100" y="874" as="sourcePoint"/>
                        <mxPoint x="410" y="874" as="targetPoint"/>
                    </mxGeometry>
                </mxCell>
                <mxCell id="Ru3vULmhdfQm2SZLb1U1-21" value="Approve PEC" style="edgeLabel;html=1;align=center;verticalAlign=middle;resizable=0;points=[];" parent="Ru3vULmhdfQm2SZLb1U1-20" vertex="1" connectable="0">
                    <mxGeometry x="0.2192" y="2" relative="1" as="geometry">
                        <mxPoint x="-285" as="offset"/>
                    </mxGeometry>
                </mxCell>
                <mxCell id="Ru3vULmhdfQm2SZLb1U1-23" value="" style="html=1;startArrow=none;startFill=0;endArrow=classic;endFill=1;exitX=0.83;exitY=1.006;exitDx=0;exitDy=0;exitPerimeter=0;entryX=0.594;entryY=0.049;entryDx=0;entryDy=0;entryPerimeter=0;" parent="1" source="Ru3vULmhdfQm2SZLb1U1-18" target="PdQYM3GcpFiHRcBwMXML-9" edge="1">
                    <mxGeometry relative="1" as="geometry">
                        <mxPoint x="-250" y="875" as="sourcePoint"/>
                        <mxPoint x="-170" y="850" as="targetPoint"/>
                    </mxGeometry>
                </mxCell>
                <mxCell id="Ru3vULmhdfQm2SZLb1U1-24" value="Pending&lt;br&gt;Approval" style="edgeLabel;html=1;align=center;verticalAlign=middle;resizable=0;points=[];" parent="Ru3vULmhdfQm2SZLb1U1-23" vertex="1" connectable="0">
                    <mxGeometry x="-0.3142" y="-1" relative="1" as="geometry">
                        <mxPoint as="offset"/>
                    </mxGeometry>
                </mxCell>
                <mxCell id="Ru3vULmhdfQm2SZLb1U1-27" value="" style="edgeStyle=none;html=1;exitX=0;exitY=0.5;exitDx=0;exitDy=0;" parent="1" source="Ru3vULmhdfQm2SZLb1U1-18" target="Ru3vULmhdfQm2SZLb1U1-29" edge="1">
                    <mxGeometry relative="1" as="geometry">
                        <mxPoint x="-263" y="775" as="sourcePoint"/>
                    </mxGeometry>
                </mxCell>
                <mxCell id="Ru3vULmhdfQm2SZLb1U1-28" value="Approved,&lt;br&gt;Rejected,&lt;br&gt;Disconeected" style="edgeLabel;html=1;align=center;verticalAlign=middle;resizable=0;points=[];" parent="Ru3vULmhdfQm2SZLb1U1-27" vertex="1" connectable="0">
                    <mxGeometry x="-0.1621" y="-2" relative="1" as="geometry">
                        <mxPoint as="offset"/>
                    </mxGeometry>
                </mxCell>
                <mxCell id="Ru3vULmhdfQm2SZLb1U1-29" value="Nothing to do, stop." style="rounded=1;whiteSpace=wrap;html=1;arcSize=50;strokeColor=#B3B3B3;" parent="1" vertex="1">
                    <mxGeometry x="-470" y="731" width="100" height="60" as="geometry"/>
                </mxCell>
                <mxCell id="Ru3vULmhdfQm2SZLb1U1-32" value="" style="html=1;exitX=0.199;exitY=0.016;exitDx=0;exitDy=0;exitPerimeter=0;" parent="1" source="Ru3vULmhdfQm2SZLb1U1-18" edge="1">
                    <mxGeometry relative="1" as="geometry">
                        <mxPoint x="-229.51999999999998" y="492.52" as="sourcePoint"/>
                        <mxPoint x="-270" y="670" as="targetPoint"/>
                    </mxGeometry>
                </mxCell>
                <mxCell id="Ru3vULmhdfQm2SZLb1U1-33" value="Error, Not found" style="edgeLabel;html=1;align=center;verticalAlign=middle;resizable=0;points=[];" parent="Ru3vULmhdfQm2SZLb1U1-32" vertex="1" connectable="0">
                    <mxGeometry x="0.1621" y="3" relative="1" as="geometry">
                        <mxPoint as="offset"/>
                    </mxGeometry>
                </mxCell>
                <mxCell id="Ru3vULmhdfQm2SZLb1U1-34" value="" style="html=1;exitX=1;exitY=0.5;exitDx=0;exitDy=0;entryX=0;entryY=0.5;entryDx=0;entryDy=0;" parent="1" target="Ru3vULmhdfQm2SZLb1U1-39" edge="1">
                    <mxGeometry relative="1" as="geometry">
                        <mxPoint x="-250" y="640.5000000000002" as="sourcePoint"/>
                        <mxPoint x="-160" y="651" as="targetPoint"/>
                    </mxGeometry>
                </mxCell>
                <mxCell id="Ru3vULmhdfQm2SZLb1U1-35" value="Try again" style="edgeLabel;html=1;align=center;verticalAlign=middle;resizable=0;points=[];" parent="Ru3vULmhdfQm2SZLb1U1-34" vertex="1" connectable="0">
                    <mxGeometry x="-0.1749" y="-1" relative="1" as="geometry">
                        <mxPoint as="offset"/>
                    </mxGeometry>
                </mxCell>
                <mxCell id="Ru3vULmhdfQm2SZLb1U1-37" value="" style="endArrow=none;html=1;" parent="1" target="Ru3vULmhdfQm2SZLb1U1-36" edge="1">
                    <mxGeometry width="50" height="50" relative="1" as="geometry">
                        <mxPoint x="-150" y="370" as="sourcePoint"/>
                        <mxPoint x="370" y="370" as="targetPoint"/>
                    </mxGeometry>
                </mxCell>
                <mxCell id="PdQYM3GcpFiHRcBwMXML-5" value="" style="endArrow=none;html=1;startArrow=classic;startFill=1;endFill=0;dashed=1;" parent="1" edge="1">
                    <mxGeometry width="50" height="50" relative="1" as="geometry">
                        <mxPoint x="-149" y="921" as="sourcePoint"/>
                        <mxPoint x="410" y="920" as="targetPoint"/>
                    </mxGeometry>
                </mxCell>
                <mxCell id="PdQYM3GcpFiHRcBwMXML-6" value="Return OK" style="edgeLabel;html=1;align=center;verticalAlign=middle;resizable=0;points=[];" parent="PdQYM3GcpFiHRcBwMXML-5" vertex="1" connectable="0">
                    <mxGeometry x="0.2192" y="2" relative="1" as="geometry">
                        <mxPoint x="-133" as="offset"/>
                    </mxGeometry>
                </mxCell>
                <mxCell id="Ru3vULmhdfQm2SZLb1U1-39" value="" style="ellipse;whiteSpace=wrap;html=1;aspect=fixed;labelBackgroundColor=#000000;labelBorderColor=none;fontColor=#FFFFFF;fillColor=#FFFFFF;gradientColor=none;" parent="1" vertex="1">
                    <mxGeometry x="-160" y="631" width="20" height="20" as="geometry"/>
                </mxCell>
                <mxCell id="Ru3vULmhdfQm2SZLb1U1-36" value="" style="ellipse;whiteSpace=wrap;html=1;aspect=fixed;labelBackgroundColor=#000000;labelBorderColor=none;fontColor=#FFFFFF;" parent="1" vertex="1">
                    <mxGeometry x="-160" y="360" width="20" height="20" as="geometry"/>
                </mxCell>
                <mxCell id="PdQYM3GcpFiHRcBwMXML-9" value="" style="ellipse;whiteSpace=wrap;html=1;aspect=fixed;labelBackgroundColor=#000000;labelBorderColor=none;fontColor=#FFFFFF;fillColor=#FFFFFF;gradientColor=none;" parent="1" vertex="1">
                    <mxGeometry x="-162" y="862" width="20" height="20" as="geometry"/>
                </mxCell>
                <mxCell id="Ru3vULmhdfQm2SZLb1U1-3" value="Creates Private Endpoint Connection in Pending status" style="rounded=1;whiteSpace=wrap;html=1;strokeColor=#B3B3B3;" parent="1" vertex="1">
                    <mxGeometry x="356" y="327" width="124" height="51" as="geometry"/>
                </mxCell>
                <mxCell id="PdQYM3GcpFiHRcBwMXML-13" value="&lt;span style=&quot;font-size: 9px;&quot;&gt;&lt;font style=&quot;font-size: 9px;&quot;&gt;Send the ResourceId for the target resource to the PaaS resource&lt;/font&gt;&lt;/span&gt;" style="text;html=1;strokeColor=none;fillColor=none;align=center;verticalAlign=middle;whiteSpace=wrap;rounded=0;labelBorderColor=none;spacing=2;spacingLeft=0;fontColor=#000000;labelBackgroundColor=#FFFFFF;fontStyle=6;fontSize=9;" parent="1" vertex="1">
                    <mxGeometry x="-103" y="76" width="100" height="30" as="geometry"/>
                </mxCell>
                <mxCell id="Z5TNmx9V-XeQG3wtOzFb-1" value="1" style="shape=ellipse;fillColor=#666666;strokeColor=none;html=1;rounded=1;shadow=0;glass=1;strokeWidth=4;fontColor=#ffffff;labelBorderColor=none;fontStyle=1;aspect=fixed;" parent="1" vertex="1">
                    <mxGeometry x="-184" y="140" width="22" height="22" as="geometry"/>
                </mxCell>
                <mxCell id="Z5TNmx9V-XeQG3wtOzFb-5" value="&amp;gt;" style="text;html=1;strokeColor=none;fillColor=none;align=center;verticalAlign=middle;whiteSpace=wrap;rounded=0;dashed=1;dashPattern=1 1;labelBackgroundColor=#FFFFFF;labelBorderColor=none;fontSize=34;fontColor=#B3B3B3;fontStyle=1" parent="1" vertex="1">
                    <mxGeometry x="-3" y="80" width="30" height="22" as="geometry"/>
                </mxCell>
                <mxCell id="Z5TNmx9V-XeQG3wtOzFb-6" value="Wait a few&lt;br&gt;seconds" style="sketch=0;aspect=fixed;html=1;points=[];align=center;image;fontSize=12;image=img/lib/mscae/Clock.svg;" parent="1" vertex="1">
                    <mxGeometry x="-297" y="601" width="30" height="30" as="geometry"/>
                </mxCell>
                <mxCell id="Z5TNmx9V-XeQG3wtOzFb-9" value="2" style="shape=ellipse;fillColor=#666666;strokeColor=none;html=1;rounded=1;shadow=0;glass=1;strokeWidth=4;fontColor=#ffffff;labelBorderColor=none;fontStyle=1;aspect=fixed;" parent="1" vertex="1">
                    <mxGeometry x="80" y="269" width="22" height="22" as="geometry"/>
                </mxCell>
                <mxCell id="Z5TNmx9V-XeQG3wtOzFb-10" value="3" style="shape=ellipse;fillColor=#666666;strokeColor=none;html=1;rounded=1;shadow=0;glass=1;strokeWidth=4;fontColor=#ffffff;labelBorderColor=none;fontStyle=1;aspect=fixed;" parent="1" vertex="1">
                    <mxGeometry x="-194" y="320" width="22" height="22" as="geometry"/>
                </mxCell>
                <mxCell id="Z5TNmx9V-XeQG3wtOzFb-12" value="4" style="shape=ellipse;fillColor=#FF0000;strokeColor=none;html=1;rounded=1;shadow=0;glass=1;strokeWidth=4;fontColor=#ffffff;labelBorderColor=none;fontStyle=1;aspect=fixed;" parent="1" vertex="1">
                    <mxGeometry x="-194" y="448" width="22" height="22" as="geometry"/>
                </mxCell>
                <mxCell id="Z5TNmx9V-XeQG3wtOzFb-13" value="5" style="shape=ellipse;fillColor=#666666;strokeColor=none;html=1;rounded=1;shadow=0;glass=1;strokeWidth=4;fontColor=#ffffff;labelBorderColor=none;fontStyle=1;aspect=fixed;" parent="1" vertex="1">
                    <mxGeometry x="224" y="456.5" width="22" height="22" as="geometry"/>
                </mxCell>
                <mxCell id="Z5TNmx9V-XeQG3wtOzFb-14" value="6" style="shape=ellipse;fillColor=#666666;strokeColor=none;html=1;rounded=1;shadow=0;glass=1;strokeWidth=4;fontColor=#ffffff;labelBorderColor=none;fontStyle=1;aspect=fixed;" parent="1" vertex="1">
                    <mxGeometry x="-197" y="601" width="22" height="22" as="geometry"/>
                </mxCell>
                <mxCell id="Z5TNmx9V-XeQG3wtOzFb-15" value="7" style="shape=ellipse;fillColor=#666666;strokeColor=none;html=1;rounded=1;shadow=0;glass=1;strokeWidth=4;fontColor=#ffffff;labelBorderColor=none;fontStyle=1;aspect=fixed;" parent="1" vertex="1">
                    <mxGeometry x="-197" y="830" width="22" height="22" as="geometry"/>
                </mxCell>
            </root>
        </mxGraphModel>
    </diagram>
</mxfile>